<svg fill="currentColor" xmlns="http://www.w3.org/2000/svg" width="20" height="20"><path  fill-rule="evenodd" d="M10.28.374c2.359 0 2.7.013 3.688.058 1.024.047 1.724.21 2.336.447.643.242 1.225.62 1.705 1.11.49.481.869 1.063 1.11 1.705.239.613.401 1.312.448 2.337.047 1.026.058 1.354.058 3.968 0 2.615-.011 2.942-.058 3.969-.047 1.025-.21 1.724-.447 2.337a4.927 4.927 0 01-2.815 2.815c-.613.238-1.312.4-2.337.447-.874.04-1.242.054-2.947.057H8.979c-1.706-.003-2.073-.017-2.948-.057-1.025-.047-1.724-.21-2.336-.447a4.705 4.705 0 01-1.705-1.11 4.709 4.709 0 01-1.11-1.705c-.239-.613-.401-1.312-.448-2.337-.047-1.026-.058-1.354-.058-3.969v-.28c0-2.359.013-2.7.058-3.688.047-1.025.21-1.724.447-2.337a4.722 4.722 0 011.11-1.705A4.722 4.722 0 013.694.879c.613-.238 1.312-.4 2.337-.447C7.057.385 7.385.374 9.999.374zm.523 1.735H9.196c-1.846.002-2.188.014-3.086.055-.939.043-1.448.2-1.787.332-.419.154-.797.4-1.107.72-.32.31-.566.688-.72 1.107-.132.339-.289.848-.332 1.787-.039.859-.052 1.209-.055 2.853v2.073c.003 1.644.016 1.994.055 2.853.043.939.2 1.448.332 1.788.154.418.4.796.72 1.106.31.32.688.566 1.106.72.34.132.85.289 1.788.332.859.039 1.209.052 2.853.055h2.073c1.644-.003 1.994-.016 2.853-.055.938-.043 1.448-.2 1.787-.332a3.185 3.185 0 001.827-1.826c.132-.34.289-.85.332-1.788.04-.898.053-1.24.055-3.086V9.196c-.002-1.846-.015-2.188-.055-3.086-.043-.939-.2-1.448-.332-1.787a2.972 2.972 0 00-.72-1.107 2.972 2.972 0 00-1.107-.72c-.339-.132-.849-.289-1.787-.332-.898-.04-1.24-.053-3.086-.055zM10 5.057a4.943 4.943 0 110 9.885 4.943 4.943 0 010-9.885zm0 1.734a3.208 3.208 0 100 6.417 3.21 3.21 0 10-.001-6.417zm5.138-3.085a1.156 1.156 0 110 2.311 1.156 1.156 0 010-2.311z"/></svg>